<svg xmlns="http://www.w3.org/2000/svg" viewBox="0 0 1141.71 584.75"><defs><style>.cls-1{fill:#ffa522;}.cls-2{fill:#5eb5e5;}.cls-3{fill:#e84d7a;}</style></defs><g id="Layer_2" data-name="Layer 2"><g id="Layer_8" data-name="Layer 8"><rect class="cls-1" x="163.68" y="73.43" width="18.67" height="18.67" transform="translate(72.72 -80.71) rotate(32.91)"/><rect class="cls-1" x="925.92" y="121.33" width="26" height="26" transform="translate(166.22 -415.71) rotate(27.3)"/><rect class="cls-1" x="1052.59" y="258.67" width="11.33" height="11.33"/><rect class="cls-1" x="111.64" y="226.48" width="14" height="14" transform="translate(54.33 -20.4) rotate(12.72)"/><rect class="cls-1" x="859.25" y="14.67" width="16" height="16"/><rect class="cls-1" x="118.61" y="453.95" width="14" height="14" transform="translate(-149.94 70.66) rotate(-19.98)"/><rect class="cls-1" x="256.59" y="164" width="16" height="16"/><rect class="cls-1" x="964.59" y="344.58" width="23.71" height="23.71"/><rect class="cls-1" x="1103.25" y="80" width="17.33" height="17.33"/><rect class="cls-1" x="37.92" y="22.67" width="8" height="8"/><rect class="cls-1" x="1016.59" y="500" width="22" height="22"/><rect class="cls-1" x="316.07" y="15.34" width="29.33" height="29.33" transform="translate(0.2 62.15) rotate(-10.74)"/><rect class="cls-1" x="845.92" y="210.67" width="21.33" height="21.33"/><rect class="cls-1" x="1016.59" y="14.67" width="16" height="16" transform="translate(49.19 -291.8) rotate(16.6)"/><rect class="cls-1" x="76.59" y="312" width="7.33" height="7.33"/><rect class="cls-1" x="293.18" y="477.48" width="24" height="24" transform="matrix(0.97, -0.26, 0.26, 0.97, -114.91, 94.2)"/><rect class="cls-1" x="1076.59" y="425.33" width="16" height="16"/><rect class="cls-1" x="1120.59" y="194.67" width="10" height="10"/><circle class="cls-2" cx="44.42" cy="140.83" r="6.5"/><circle class="cls-2" cx="951.75" cy="234.17" r="12.83"/><circle class="cls-2" cx="691.25" cy="24" r="9.33"/><circle class="cls-2" cx="1051.25" cy="127.33" r="12.67"/><circle class="cls-2" cx="193.92" cy="539.33" r="17.33"/><circle class="cls-2" cx="22.09" cy="566.17" r="9.5"/><circle class="cls-2" cx="262.25" cy="237.67" r="5.67"/><circle class="cls-2" cx="929.59" cy="553" r="3.67"/><circle class="cls-2" cx="1114.42" cy="564.17" r="11.17"/><circle class="cls-2" cx="193.92" cy="30.67" r="8"/><circle class="cls-2" cx="540.25" cy="2.33" r="2.33"/><circle class="cls-2" cx="1103.5" cy="340.25" r="10.92"/><circle class="cls-2" cx="178.25" cy="384.33" r="11"/><polygon class="cls-3" points="270.64 122.97 225.99 137.67 235.59 91.66 270.64 122.97"/><polygon class="cls-3" points="875.25 71.33 867.75 84.33 882.76 84.33 875.25 71.33"/><polygon class="cls-3" points="1002.57 231.27 996.26 262.73 1026.66 252.46 1002.57 231.27"/><polygon class="cls-3" points="905.2 489.48 860.32 489.48 882.76 528.35 905.2 489.48"/><polygon class="cls-3" points="1102.67 11.21 1074.24 37.16 1110.93 48.8 1102.67 11.21"/><polygon class="cls-3" points="139.12 274.64 130.68 312 167.25 300.62 139.12 274.64"/><polygon class="cls-3" points="80.25 57.83 68.56 78.09 91.95 78.09 80.25 57.83"/><polygon class="cls-3" points="12.59 369.8 0 391.6 25.17 391.6 12.59 369.8"/><polygon class="cls-3" points="760.59 9.33 745.58 35.33 775.6 35.33 760.59 9.33"/><polygon class="cls-3" points="443.25 12.94 431.37 33.53 455.14 33.53 443.25 12.94"/><polygon class="cls-3" points="311.77 258.7 287.86 284.88 322.49 292.49 311.77 258.7"/><polygon class="cls-3" points="346.29 550.31 317.02 568.51 347.42 584.75 346.29 550.31"/><polygon class="cls-3" points="1009.12 417.98 977.25 440.99 1013.12 457.09 1009.12 417.98"/><polygon class="cls-3" points="988.3 570.45 981.41 582.37 995.18 582.37 988.3 570.45"/><polygon class="cls-3" points="1136.92 258.94 1132.13 267.24 1141.71 267.24 1136.92 258.94"/><polygon class="cls-3" points="25.17 170.72 10.21 196.64 40.14 196.64 25.17 170.72"/><polygon class="cls-3" points="1130.59 474.45 1129.25 476.77 1131.93 476.77 1130.59 474.45"/></g></g></svg>